<?xml version="1.0" standalone="no"?>
<!DOCTYPE svg PUBLIC "-//W3C//DTD SVG 20010904//EN"
 "http://www.w3.org/TR/2001/REC-SVG-20010904/DTD/svg10.dtd">
<svg version="1.0" xmlns="http://www.w3.org/2000/svg"
 width="1500.000000pt" height="1500.000000pt" viewBox="0 0 1500.000000 1500.000000"
 preserveAspectRatio="xMidYMid meet">
<metadata>
Created by potrace 1.14, written by Peter Selinger 2001-2017
</metadata>
<g transform="translate(0.000000,1500.000000) scale(0.100000,-0.100000)"
fill="#000000" stroke="none">
<path d="M0 7500 l0 -7500 7500 0 7500 0 0 7500 0 7500 -7500 0 -7500 0 0
-7500z m2820 2785 c316 0 675 3 798 8 l223 7 -3 -77 -3 -78 -125 -11 c-273
-25 -385 -74 -445 -194 -61 -122 -65 -203 -65 -1277 l0 -953 23 0 c53 0 198
22 272 42 229 61 415 179 575 367 70 82 775 977 886 1124 147 197 255 397 283
525 33 155 -9 253 -132 311 -77 36 -140 51 -254 59 l-88 7 -3 78 -3 78 213 -8
c269 -10 1025 -10 1221 0 l148 7 -3 -77 -3 -77 -80 -17 c-269 -58 -519 -198
-705 -396 -80 -85 -190 -224 -940 -1187 -261 -335 -474 -614 -474 -621 2 -17
1850 -2604 1918 -2685 140 -166 299 -263 551 -338 30 -8 30 -10 33 -86 l3 -78
-243 8 c-347 10 -993 10 -1270 1 l-238 -8 0 75 0 75 58 6 c107 12 203 34 238
55 70 44 82 123 32 218 -56 106 -1319 1992 -1395 2082 -165 196 -297 265 -566
296 l-58 6 4 -1128 c3 -989 5 -1138 19 -1199 52 -224 134 -283 454 -320 71 -8
137 -15 146 -15 16 0 18 -10 18 -76 l0 -75 -262 7 c-362 10 -1223 11 -1510 1
l-238 -8 0 75 0 74 68 7 c130 11 314 45 360 65 104 46 159 131 190 293 16 86
17 241 17 2262 0 1703 -3 2186 -13 2245 -29 172 -85 267 -182 309 -74 32 -209
59 -332 67 l-108 7 0 79 0 78 208 -7 c114 -5 466 -8 782 -8z m4850 0 c223 0
474 2 559 5 l154 5 861 -2267 c474 -1247 863 -2268 866 -2268 3 0 66 166 142
368 140 378 1532 4104 1543 4133 5 14 67 17 588 23 320 3 628 9 685 12 l102 7
0 -80 0 -80 -107 -7 c-121 -8 -261 -35 -327 -65 -57 -25 -122 -91 -147 -148
-11 -25 -27 -87 -37 -137 -16 -84 -17 -248 -17 -2266 0 -2038 1 -2181 18
-2269 9 -51 27 -115 38 -142 25 -57 92 -123 154 -150 44 -19 230 -53 358 -64
l67 -7 0 -75 0 -75 -237 8 c-303 10 -1270 10 -1555 0 l-218 -8 0 76 c0 66 2
76 18 76 9 0 75 7 146 15 319 37 398 94 453 320 16 65 18 243 20 2304 2 1229
1 2233 -1 2230 -2 -2 -196 -519 -431 -1149 -709 -1902 -1436 -3853 -1447
-3882 -9 -27 -13 -28 -74 -28 l-64 0 -15 37 c-16 39 -480 1232 -1402 3608
-305 787 -557 1432 -559 1434 -2 3 -3 -987 -2 -2200 3 -2080 4 -2209 21 -2287
34 -156 100 -253 210 -306 71 -35 225 -73 327 -81 47 -3 100 -8 118 -11 l32
-5 0 -75 0 -76 -172 8 c-230 10 -1025 11 -1210 0 l-148 -8 0 76 0 75 33 5 c17
3 62 8 99 11 217 18 371 100 433 230 36 77 53 161 66 320 15 205 7 4238 -10
4320 -51 259 -143 327 -491 359 l-125 11 -3 78 -3 77 143 -7 c79 -5 325 -8
548 -8z"/>
</g>
</svg>
